<svg width="226" height="40" viewBox="0 0 226 40" fill="none" xmlns="http://www.w3.org/2000/svg">
<path fill-rule="evenodd" clip-rule="evenodd" d="M72.2175 10.6306H69.2021C64.9807 10.6306 62.5684 12.1493 61.3622 13.668H61.2115V0H55.1808V38.4221H61.2115V35.8404H61.513C63.1714 38.1184 66.3376 39.1815 70.1067 39.1815H72.0667C80.0574 39.1815 85.9373 37.2072 85.9373 27.9434V22.3243C85.7865 13.668 82.0173 10.6306 72.2175 10.6306ZM79.7558 26.8803C79.7558 32.0438 78.3989 34.3217 71.3129 34.3217H69.956C63.1714 34.3217 61.3622 32.4994 61.3622 27.3359V22.0206C61.3622 15.6422 65.433 15.4903 70.8606 15.4903H71.4636C76.8913 15.4903 79.7558 16.4015 79.7558 22.6281V26.8803ZM158.456 11.39H150.466V8.80824C150.466 6.37838 151.973 4.55598 155.29 4.55598H161.321V0H153.33C148.506 0 144.435 2.58172 144.435 8.9601V11.39H141.269V16.2497H144.435V39.3333H150.466V16.2497H158.456V11.39ZM129.811 30.3732V16.2497H137.801V11.39H129.811V0H123.78V11.39H120.614V16.2497H123.78V30.3732C123.78 36.7516 127.851 39.3333 132.675 39.3333H140.063V34.4736H134.032C130.866 34.3217 129.811 32.6512 129.811 30.3732ZM192.982 6.07465H199.013V0H192.982V6.07465ZM192.982 39.1815H199.013V10.6306H192.982V39.1815ZM105.839 10.6306H102.974C96.7925 10.6306 89.1034 11.6937 89.1034 21.4131V28.0952C89.1034 37.5109 95.5864 39.0296 101.316 39.0296H106.743C113.98 39.0296 117.297 36.7516 118.201 32.6512L112.774 31.2844C111.869 33.7143 109.759 34.4736 105.085 34.4736H103.728C96.0387 34.4736 94.8326 33.5624 94.8326 27.3359H118.654V22.0206C118.654 12.453 113.678 10.6306 105.839 10.6306ZM94.8326 22.4762V21.565C94.8326 16.0978 97.3956 15.4903 103.577 15.4903H104.783C111.718 15.4903 112.623 17.3127 112.623 20.8057V22.3243L94.8326 22.4762ZM174.136 10.6306H171.875C163.733 10.6306 160.266 13.2124 159.964 16.8571L165.693 18.8314C165.995 16.2497 168.859 15.4903 173.382 15.4903C180.016 15.4903 181.524 15.9459 181.524 20.6538V23.2355H181.373C179.865 21.2613 177.755 20.6538 172.628 20.6538H170.216C162.527 20.6538 158.155 22.6281 158.155 28.7027V30.3732C158.155 35.3848 160.115 39.0296 168.105 39.0296H173.985C179.714 39.0296 180.318 38.1184 181.524 36.4479H181.674V39.0296H187.705V20.8057C187.554 12.9086 182.278 10.6306 174.136 10.6306ZM181.674 30.677C181.674 33.4106 179.865 34.3217 172.779 34.3217H171.121C165.09 34.3217 164.336 33.1068 164.336 30.8288V29.3102C164.336 26.5766 165.844 25.6654 170.819 25.6654H173.533C178.056 25.6654 181.674 26.5766 181.674 29.6139V30.677ZM217.256 10.6306C214.542 10.6306 211.828 11.6937 210.169 14.4273H210.019V10.6306H204.29V39.1815H210.32V22.0206C210.32 18.5277 212.28 15.4903 216.954 15.4903C220.271 15.4903 221.929 16.4015 222.231 17.3127L226 14.731C225.095 12.1493 222.532 10.6306 217.256 10.6306ZM44.3256 0.151866H28.7965V8.0489H20.5043L36.6364 26.8803L52.6177 7.89704H44.3256V0.151866ZM0 31.1326H8.29219V39.0296H23.8212V31.1326H32.1134L16.1321 12.3012L0 31.1326Z" fill="#232325"/>
</svg>
