<svg width="96" height="16" viewBox="0 0 96 16" fill="none" xmlns="http://www.w3.org/2000/svg">
<g clip-path="url(#clip0_31334_28189)">
<g clip-path="url(#clip1_31334_28189)">
<path d="M94.9293 0H69.7887C69.1974 0 68.718 0.476966 68.718 1.06533V14.9347C68.718 15.523 69.1974 16 69.7887 16H94.9293C95.5206 16 96 15.523 96 14.9347V1.06533C96 0.476966 95.5206 0 94.9293 0Z" fill="white"/>
<path d="M70.1707 0H26.7541C26.1621 0 25.6821 0.477563 25.6821 1.06667V14.9333C25.6821 15.5224 26.1621 16 26.7541 16H70.1707C70.7628 16 71.2427 15.5224 71.2427 14.9333V1.06667C71.2427 0.477563 70.7628 0 70.1707 0Z" fill="url(#paint0_linear_31334_28189)"/>
<path opacity="0.3" d="M26.4539 7.93867H26.5544C29.7261 7.82667 70.4413 6.412 70.4413 6.412C70.6546 6.412 70.859 6.32771 71.0098 6.17769C71.1606 6.02766 71.2453 5.82417 71.2453 5.612V1.06667C71.2453 0.783769 71.1324 0.512458 70.9313 0.312419C70.7303 0.112381 70.4576 0 70.1733 0L26.7581 0C26.4737 0 26.2011 0.112381 26 0.312419C25.799 0.512458 25.6861 0.783769 25.6861 1.06667V8.768C25.6805 8.55755 25.7576 8.35322 25.9009 8.19839C26.0443 8.04355 26.2426 7.95039 26.4539 7.93867Z" fill="url(#paint1_linear_31334_28189)"/>
<path d="M31.4653 11.8252L28.2292 4.45986C28.4926 4.32817 28.7828 4.25838 29.0775 4.25586C29.4727 4.25586 29.6617 4.36519 29.8037 4.71053L31.1142 7.91053L32.2184 10.5772H32.2344L33.3399 7.91053L34.6491 4.71053C34.7925 4.38119 34.9653 4.25586 35.3606 4.25586C35.651 4.26164 35.9366 4.3313 36.1968 4.45986L33.1389 11.4012C32.9486 11.8252 32.7758 11.9345 32.2545 11.9345C31.9882 11.9275 31.7234 11.8908 31.4653 11.8252Z" fill="white"/>
<path d="M43.7756 8.5587H37.9038C38.0767 10.0254 39.087 10.836 40.5838 10.836C41.1377 10.8338 41.6873 10.7383 42.2092 10.5534C42.5402 10.444 42.6822 10.396 42.8081 10.396C43.1713 10.396 43.4085 10.6947 43.3441 11.3867C42.4578 11.7811 41.5009 11.9947 40.5302 12.0147C38.1624 12.0147 36.5679 10.428 36.5679 8.07204C36.5679 5.80537 38.2576 4.17737 40.3198 4.17737C42.6554 4.17737 43.8037 5.9827 43.8037 7.80537C43.8091 8.05681 43.7997 8.30835 43.7756 8.5587ZM37.9038 7.55337H42.5602C42.5134 6.2667 41.6732 5.26004 40.3332 5.26004C39.1661 5.26004 38.1088 6.06137 37.9038 7.55337Z" fill="white"/>
<path d="M52.3931 4.3187V11.1667C52.3931 13.1454 50.9191 14.4 48.6412 14.4C47.5918 14.3819 46.5584 14.141 45.6101 13.6934C45.5311 12.9547 45.7682 12.6574 46.0992 12.6574C46.2895 12.6574 46.4784 12.7507 46.7947 12.8774C47.3723 13.1307 47.9941 13.2693 48.6251 13.2854C50.1245 13.2854 51.1027 12.5787 51.1027 11.1334V10.616C50.6618 11.2134 49.7453 11.7787 48.4991 11.7787C46.6674 11.7787 44.979 10.312 44.979 7.97737C44.979 5.6427 46.6835 4.17737 48.5152 4.17737C49.7306 4.17737 50.6458 4.7427 51.1188 5.37737V4.76403C51.1188 4.4667 51.293 4.2627 51.7821 4.2627C51.9872 4.25998 52.192 4.27875 52.3931 4.3187ZM51.0987 6.7187C50.8902 6.28242 50.5607 5.91455 50.149 5.65846C49.7373 5.40238 49.2606 5.26876 48.7752 5.27337C47.3695 5.27337 46.2815 6.2787 46.2815 7.9747C46.2815 9.6707 47.3735 10.676 48.7752 10.676C49.2591 10.6766 49.7334 10.5415 50.1437 10.2861C50.5539 10.0307 50.8835 9.66535 51.0947 9.23203L51.0987 6.7187Z" fill="white"/>
<path d="M60.4998 7.03614V11.8735C60.3079 11.915 60.112 11.936 59.9156 11.9361C59.4412 11.9361 59.2215 11.7628 59.2215 11.4495V10.7828C58.8939 11.1719 58.4836 11.4836 58.0201 11.6955C57.5566 11.9074 57.0516 12.0142 56.5415 12.0081C54.8532 12.0081 53.9219 10.9081 53.9219 9.71481C53.9219 7.89214 55.8782 7.09214 59.2094 7.31481V7.04814C59.2094 5.80814 58.8302 5.28947 57.3938 5.28947C56.775 5.31604 56.1611 5.41084 55.5633 5.57214C55.3681 5.63441 55.1669 5.67641 54.963 5.69747C54.5999 5.69747 54.3627 5.38414 54.49 4.72414C55.4414 4.37823 56.444 4.19257 57.4567 4.1748C59.6784 4.17747 60.4998 5.1668 60.4998 7.03614ZM59.2054 9.67481V8.24547C57.0266 8.08814 55.2123 8.37081 55.2123 9.67481C55.2123 10.3335 55.7643 10.9308 56.7586 10.9308C57.2372 10.929 57.7086 10.8143 58.134 10.5959C58.5593 10.3776 58.9265 10.0619 59.2054 9.67481Z" fill="white"/>
<path d="M62.0944 11.4962C61.9993 10.8295 62.2043 10.4908 62.5835 10.4908C62.9627 10.4908 63.8297 10.8842 65.0611 10.8842C66.3556 10.8842 66.8447 10.4282 66.8447 9.83084C66.8447 9.40684 66.6557 9.03084 65.4873 8.71618L64.1473 8.35484C62.6639 7.96284 62.0797 7.22418 62.0797 6.31351C62.0797 5.18284 62.9788 4.18018 65.0156 4.18018C65.9508 4.18805 66.8785 4.34701 67.7625 4.65084C67.8885 5.29484 67.6835 5.64018 67.2882 5.64018C66.9411 5.64018 66.1519 5.31084 65.0317 5.31084C63.8257 5.31084 63.3902 5.71884 63.3902 6.25351C63.3902 6.62951 63.563 6.97484 64.6364 7.27351L66.0098 7.65084C67.5414 8.07484 68.1538 8.78151 68.1538 9.78418C68.1538 10.9615 67.2386 12.0148 65.029 12.0148C64.0291 12.0004 63.0381 11.8253 62.0944 11.4962Z" fill="white"/>
<path d="M77.3032 3.52823C77.3032 3.39277 77.3436 3.26037 77.4194 3.1478C77.4951 3.03524 77.6027 2.94757 77.7285 2.89592C77.8544 2.84427 77.9928 2.83096 78.1262 2.85768C78.2597 2.8844 78.3822 2.94994 78.4781 3.046C78.5741 3.14206 78.6392 3.26431 78.6653 3.39725C78.6914 3.5302 78.6772 3.66785 78.6246 3.79277C78.5719 3.91768 78.4832 4.02423 78.3696 4.0989C78.256 4.17358 78.1227 4.21302 77.9866 4.21223C77.805 4.21117 77.6312 4.13864 77.5031 4.01048C77.3751 3.88232 77.3032 3.70894 77.3032 3.52823ZM77.4506 11.2109V5.29889C77.4506 5.05089 77.594 4.89889 78.0255 4.89889C78.1886 4.89883 78.3512 4.91626 78.5105 4.95089V10.8589C78.5105 11.1256 78.3765 11.2589 77.9478 11.2589C77.7808 11.2603 77.6142 11.2442 77.4506 11.2109Z" fill="#D6212F"/>
<path d="M74.6904 11.2104V3.11045C74.6904 2.86378 74.8351 2.71045 75.2666 2.71045C75.4337 2.71038 75.6003 2.72781 75.7637 2.76245V10.8584C75.7637 11.1251 75.6204 11.2584 75.1876 11.2584C75.0206 11.2599 74.854 11.2438 74.6904 11.2104Z" fill="#D6212F"/>
<path d="M92.6273 8.46287H87.7592C87.9039 9.67353 88.7414 10.3509 89.9836 10.3509C90.443 10.3492 90.8988 10.2699 91.3316 10.1162C91.4901 10.0486 91.6575 10.0037 91.8287 9.98287C92.1302 9.98287 92.3272 10.2295 92.2736 10.8029C91.541 11.1342 90.7491 11.3155 89.9447 11.3362C87.9816 11.3362 86.6604 10.0215 86.6604 8.0682C86.6604 6.19353 88.0607 4.83887 89.7745 4.83887C91.7121 4.83887 92.6662 6.3362 92.6662 7.84687C92.6652 8.05277 92.6522 8.25845 92.6273 8.46287ZM87.7592 7.62953H91.6197C91.5808 6.56153 90.8867 5.73353 89.7785 5.73353C88.807 5.73353 87.9294 6.3922 87.7592 7.62953Z" fill="#D6212F"/>
<path d="M82.3803 11.1424L79.6816 4.99977C79.902 4.88909 80.145 4.83068 80.3918 4.8291C80.7215 4.8291 80.8796 4.9211 80.9975 5.2091L82.0909 7.87577L83.0115 10.1024H83.0249L83.9468 7.87577L85.0389 5.2091C85.1568 4.93443 85.3069 4.8291 85.6311 4.8291C85.8732 4.83394 86.1112 4.89223 86.3279 4.99977L83.782 10.7891C83.6239 11.1424 83.4791 11.2344 83.045 11.2344C82.8207 11.2279 82.5979 11.197 82.3803 11.1424Z" fill="#D6212F"/>
<path d="M16.065 14.8495C16.4028 14.9977 16.7678 15.0749 17.137 15.0762C17.9771 15.0949 18.4341 14.7749 18.7744 14.0269L23.2754 4.04819C22.9799 3.91608 22.6612 3.8427 22.3374 3.83219C21.7559 3.82019 20.9773 3.93752 20.4829 5.11485L19.0277 8.53352L16.1695 3.90685C15.8547 3.82521 15.5313 3.78046 15.2061 3.77352C14.193 3.77352 13.6302 4.14285 13.0433 4.77485L10.2629 7.79085L12.4993 11.2895C12.9134 11.9282 13.4574 12.2522 14.3418 12.2522C14.7818 12.2588 15.2188 12.1776 15.6268 12.0135L12.9321 7.98152L14.8416 5.96818L17.9745 10.8535L16.065 14.8495ZM10.1557 11.0749C10.1557 11.8109 9.86491 12.2349 8.41372 12.2349C8.24373 12.2351 8.07397 12.2226 7.90587 12.1975V2.44018C7.90587 1.69752 8.15912 0.922852 9.61702 0.922852C9.79982 0.922791 9.98213 0.941558 10.161 0.978852L10.1557 11.0749ZM7.1729 9.60019C7.1729 10.9749 6.27109 11.9749 4.43667 12.1722C3.10741 12.3135 1.18588 12.1469 0.272015 12.0389C0.238524 11.8814 0.219685 11.7211 0.215736 11.5602C0.215736 10.3602 0.865625 10.0935 1.47666 10.0935C2.11314 10.0935 3.11411 10.2042 3.85511 10.2042C4.67652 10.2042 4.9271 9.92819 4.9271 9.67085C4.9271 9.32685 4.60014 9.18685 3.96365 9.06285L2.22168 8.73219C0.771827 8.44819 0 7.45352 0 6.40019C0 5.11752 0.913865 4.04419 2.71211 3.84819C4.07219 3.70019 5.72706 3.86552 6.63557 3.98152C6.6675 4.13282 6.68411 4.28692 6.68515 4.44152C6.68515 5.64152 6.04866 5.89619 5.43763 5.89619C4.9673 5.89619 4.23835 5.81085 3.40488 5.81085C2.57142 5.81085 2.2056 6.04419 2.2056 6.32552C2.2056 6.60685 2.53926 6.74952 3.07123 6.84152L4.7328 7.14819C6.43859 7.45352 7.1729 8.41752 7.1729 9.60019Z" fill="#EBEBEB"/>
<path d="M23.2754 4.04777L21.6259 7.69977C21.5642 7.82902 21.4671 7.93829 21.3457 8.01496C21.2243 8.09163 21.0836 8.13259 20.9398 8.1331L19.4297 8.17977C19.3493 8.18527 19.2721 8.2132 19.2069 8.26037C19.1417 8.30753 19.0912 8.37202 19.0612 8.44643L20.4829 5.1131C20.9773 3.93577 21.7559 3.81843 22.3374 3.83043C22.6614 3.84075 22.9802 3.91461 23.2754 4.04777ZM18.9567 8.4131L16.1695 3.90643C15.8547 3.82479 15.5313 3.78004 15.2061 3.7731C14.193 3.7731 13.6302 4.14243 13.0433 4.77443L10.2629 7.79043L10.4853 8.1331C10.5564 8.24049 10.6546 8.32743 10.7701 8.38522C10.8855 8.44302 11.0142 8.46964 11.1433 8.46243L12.7298 8.4131C12.8638 8.40275 12.9983 8.42601 13.121 8.48075C13.2436 8.53549 13.3506 8.61996 13.4319 8.72643L12.9348 7.98243L14.8443 5.9691L16.1266 7.9691C16.2048 8.06719 16.3048 8.14585 16.4187 8.19884C16.5327 8.25184 16.6575 8.27772 16.7832 8.27443L18.6056 8.21043C18.6763 8.21297 18.7453 8.23278 18.8066 8.26813C18.8678 8.30347 18.9193 8.35326 18.9567 8.4131ZM9.61166 0.922434C8.15376 0.922434 7.90587 1.6971 7.90587 2.43977V9.12643C7.90617 8.97888 7.96429 8.83727 8.06789 8.73169C8.17148 8.62612 8.31238 8.56492 8.46062 8.5611L9.59022 8.52243C9.66536 8.52226 9.73973 8.50736 9.80908 8.47859C9.87843 8.44981 9.9414 8.40773 9.99441 8.35474C10.0474 8.30175 10.0894 8.23889 10.118 8.16974C10.1466 8.1006 10.1612 8.02653 10.161 7.95177V0.978434C9.98053 0.939832 9.7963 0.921053 9.61166 0.922434ZM4.7328 7.13977L3.07123 6.8331C2.53524 6.7411 2.2056 6.61843 2.2056 6.3171C2.2056 6.01577 2.55802 5.80243 3.41158 5.80243C4.26515 5.80243 4.974 5.88777 5.44433 5.88777C6.05536 5.88777 6.69185 5.63043 6.69185 4.4331C6.69081 4.2785 6.6742 4.1244 6.64227 3.9731C5.73376 3.86243 4.07889 3.6971 2.71881 3.83977C0.913865 4.0411 0 5.11443 0 6.39977C0.00246812 6.73785 0.0830242 7.07085 0.235443 7.37302C0.387861 7.67519 0.608061 7.93844 0.879025 8.14243C1.28639 8.39427 1.74335 8.55614 2.219 8.6171C2.8353 8.69949 3.4573 8.73204 4.07889 8.71443L6.06206 8.6451C6.80575 8.61977 7.20774 9.25177 7.1662 9.88377V9.85043C7.1662 9.7691 7.17558 9.68643 7.17558 9.6011C7.1729 8.4171 6.43859 7.4531 4.7328 7.13977Z" fill="url(#paint2_linear_31334_28189)"/>
</g>
</g>
<defs>
<linearGradient id="paint0_linear_31334_28189" x1="48.4631" y1="0" x2="48.4631" y2="16" gradientUnits="userSpaceOnUse">
<stop offset="0.4" stop-color="#D6212F"/>
<stop offset="1" stop-color="#A51924"/>
</linearGradient>
<linearGradient id="paint1_linear_31334_28189" x1="48.5541" y1="7.424" x2="48.2782" y2="-0.544095" gradientUnits="userSpaceOnUse">
<stop stop-color="white"/>
<stop offset="0.12" stop-color="white" stop-opacity="0.83"/>
<stop offset="0.27" stop-color="white" stop-opacity="0.66"/>
<stop offset="0.42" stop-color="white" stop-opacity="0.51"/>
<stop offset="0.57" stop-color="white" stop-opacity="0.4"/>
<stop offset="0.72" stop-color="white" stop-opacity="0.32"/>
<stop offset="0.86" stop-color="white" stop-opacity="0.27"/>
<stop offset="1" stop-color="white" stop-opacity="0.25"/>
</linearGradient>
<linearGradient id="paint2_linear_31334_28189" x1="11.7489" y1="8.42243" x2="11.5632" y2="3.0637" gradientUnits="userSpaceOnUse">
<stop stop-color="white"/>
<stop offset="0.12" stop-color="white" stop-opacity="0.83"/>
<stop offset="0.27" stop-color="white" stop-opacity="0.66"/>
<stop offset="0.42" stop-color="white" stop-opacity="0.51"/>
<stop offset="0.57" stop-color="white" stop-opacity="0.4"/>
<stop offset="0.72" stop-color="white" stop-opacity="0.32"/>
<stop offset="0.86" stop-color="white" stop-opacity="0.27"/>
<stop offset="1" stop-color="white" stop-opacity="0.25"/>
</linearGradient>
<clipPath id="clip0_31334_28189">
<rect width="96" height="16" fill="white"/>
</clipPath>
<clipPath id="clip1_31334_28189">
<rect width="96" height="16" fill="white"/>
</clipPath>
</defs>
</svg>
